<svg id="Layer_1" data-name="Layer 1" xmlns="http://www.w3.org/2000/svg" viewBox="0 0 176.03 59.14"><defs><style>.cls-1{fill:#231f20;}.cls-2,.cls-3{fill:none;stroke-miterlimit:10;}.cls-2{stroke:#231f20;}.cls-3{stroke:#fff;stroke-width:3px;}</style></defs><title>genetic</title><path class="cls-1" d="M57.77,61a1.53,1.53,0,0,1,.95-1.27v0a1.09,1.09,0,0,1-.6-1,1.46,1.46,0,0,1,.7-1.1v0A1.86,1.86,0,0,1,58.09,56a2.16,2.16,0,0,1,2.35-2.1,2.7,2.7,0,0,1,.9.14h2.41V55H62.32a1.63,1.63,0,0,1,.43,1.07,2.05,2.05,0,0,1-2.31,2,2.58,2.58,0,0,1-.94-.19.7.7,0,0,0-.4.61c0,.42.41.61,1.16.61h1.25c1.52,0,2.27.4,2.27,1.4s-1.29,2.07-3.32,2.07C58.8,62.55,57.77,62,57.77,61Zm4.86-.28c0-.51-.43-.64-1.26-.64h-1a3.21,3.21,0,0,1-.89-.1c-.49.28-.66.57-.66.88,0,.56.64.91,1.8.91S62.63,61.23,62.63,60.68Zm-1-4.68a1.23,1.23,0,1,0-1.23,1.28A1.21,1.21,0,0,0,61.67,56Z" transform="translate(-5.24 -3.41)"/><path class="cls-1" d="M68.91,57a3,3,0,0,1,3-3.06,2.54,2.54,0,0,1,2.7,2.77,4.89,4.89,0,0,1,0,.64H69.74v-.87h4.07l-.26.29c0-1.27-.61-1.9-1.6-1.9A1.9,1.9,0,0,0,70.08,57a2,2,0,0,0,2.16,2.15A3.13,3.13,0,0,0,74,58.6l.42.75a4.11,4.11,0,0,1-2.28.7A3,3,0,0,1,68.91,57Z" transform="translate(-5.24 -3.41)"/><path class="cls-1" d="M80.34,54h1l.09.94h0a3,3,0,0,1,2.16-1.08c1.37,0,2,.84,2,2.37V59.9h-1.2V56.43c0-1-.34-1.5-1.21-1.5a2.25,2.25,0,0,0-1.67.93v4h-1.2Z" transform="translate(-5.24 -3.41)"/><path class="cls-1" d="M91.23,57a3,3,0,0,1,3-3.06,2.54,2.54,0,0,1,2.7,2.77,4.89,4.89,0,0,1-.05.64H92.05v-.87h4.08l-.26.29c0-1.27-.61-1.9-1.6-1.9A1.9,1.9,0,0,0,92.4,57a2,2,0,0,0,2.16,2.15,3.13,3.13,0,0,0,1.71-.51l.42.75a4.11,4.11,0,0,1-2.28.7A3,3,0,0,1,91.23,57Z" transform="translate(-5.24 -3.41)"/><path class="cls-1" d="M104,57.59V55h-1.61v-.89L104,54l.16-1.85h1V54h2.76v1h-2.76v2.59c0,1,.36,1.49,1.42,1.49a3.66,3.66,0,0,0,1.33-.25l.24.88a5.4,5.4,0,0,1-1.85.34C104.57,60.05,104,59.06,104,57.59Z" transform="translate(-5.24 -3.41)"/><path class="cls-1" d="M113.85,58.89h1.92V53.06h-1.92v-1h5v1H117v5.83h1.92v1h-5Z" transform="translate(-5.24 -3.41)"/><path class="cls-1" d="M124.68,56c0-2.55,1.51-4.08,3.58-4.08a3.06,3.06,0,0,1,2.2,1l-.68.76a2.05,2.05,0,0,0-1.52-.67c-1.4,0-2.34,1.14-2.34,3s.94,3,2.35,3a2.22,2.22,0,0,0,1.68-.82l.67.73a3.06,3.06,0,0,1-2.46,1.14C126.21,60.05,124.68,58.57,124.68,56Z" transform="translate(-5.24 -3.41)"/><line class="cls-2" x1="89.03" y1="2.95" x2="89.03" y2="45"/><line class="cls-2" x1="77.61" y1="3.87" x2="77.61" y2="44.4"/><line class="cls-2" x1="66.01" y1="5.54" x2="66.01" y2="42.15"/><line class="cls-2" x1="54.92" y1="9.41" x2="54.92" y2="38"/><line class="cls-2" x1="43.51" y1="13.81" x2="43.51" y2="32.84"/><line class="cls-2" x1="100.42" y1="3.87" x2="100.42" y2="44.03"/><line class="cls-2" x1="111.69" y1="6.05" x2="111.69" y2="41.47"/><line class="cls-2" x1="123.17" y1="9.41" x2="123.17" y2="37.34"/><line class="cls-2" x1="134.54" y1="15.17" x2="134.54" y2="31.81"/><line class="cls-2" x1="89.03" y1="2.95" x2="89.03" y2="45"/><line class="cls-2" x1="77.61" y1="3.87" x2="77.61" y2="44.4"/><line class="cls-2" x1="66.01" y1="5.54" x2="66.01" y2="42.15"/><line class="cls-2" x1="54.92" y1="9.41" x2="54.92" y2="38"/><line class="cls-2" x1="43.51" y1="13.81" x2="43.51" y2="32.84"/><line class="cls-2" x1="100.42" y1="3.87" x2="100.42" y2="44.03"/><line class="cls-2" x1="111.69" y1="6.05" x2="111.69" y2="41.47"/><line class="cls-2" x1="123.17" y1="9.41" x2="123.17" y2="37.34"/><line class="cls-2" x1="134.54" y1="15.17" x2="134.54" y2="31.81"/><path class="cls-3" d="M6.27,4.49c59.37,56.87,112.08,60.21,174,0" transform="translate(-5.24 -3.41)"/><path class="cls-2" d="M6.27,4.49c59.37,56.87,112.08,60.21,174,0" transform="translate(-5.24 -3.41)"/><path class="cls-3" d="M6.27,46.55c59.37-52.07,112.08-55.13,174,0" transform="translate(-5.24 -3.41)"/><path class="cls-2" d="M6.27,46.55c59.37-52.07,112.08-55.13,174,0" transform="translate(-5.24 -3.41)"/><path class="cls-3" d="M6.27,46.55c59.37-52.07,112.08-55.13,174,0" transform="translate(-5.24 -3.41)"/><path class="cls-2" d="M6.27,46.55c59.37-52.07,112.08-55.13,174,0" transform="translate(-5.24 -3.41)"/><path class="cls-3" d="M134.22,38.41c14.91-7.25,30.15-18.5,46-33.92" transform="translate(-5.24 -3.41)"/><path class="cls-2" d="M134.22,38.41c14.91-7.25,30.15-18.5,46-33.92" transform="translate(-5.24 -3.41)"/></svg>