<?xml version="1.0" encoding="UTF-8" standalone="no"?>
<!DOCTYPE svg PUBLIC "-//W3C//DTD SVG 1.1//EN" "http://www.w3.org/Graphics/SVG/1.1/DTD/svg11.dtd">
<svg width="100%" height="100%" viewBox="0 0 2481 577" version="1.1" xmlns="http://www.w3.org/2000/svg" xmlns:xlink="http://www.w3.org/1999/xlink" xml:space="preserve" xmlns:serif="http://www.serif.com/" style="fill-rule:evenodd;clip-rule:evenodd;stroke-linecap:square;stroke-linejoin:round;stroke-miterlimit:10;">
    <rect id="Artboard1" x="0" y="0" width="2480.32" height="576.238" style="fill:none;"/>
    <clipPath id="_clip1">
        <rect id="Artboard11" serif:id="Artboard1" x="0" y="0" width="2480.32" height="576.238"/>
    </clipPath>
    <g clip-path="url(#_clip1)">
        <g transform="matrix(-2.02412,0,0,2.02412,2205.36,-954.268)">
            <g transform="matrix(15.7503,0,0,0.759733,-4630.24,462.339)">
                <path d="M247.796,143.408L250.233,178.819L255.802,261.475L257.543,284.194L259.283,303.968L260.676,317.192L261.72,325.393L262.764,332.005L263.809,336.943L264.505,339.272L265.201,340.816L265.549,341.29L265.897,341.565L266.246,341.64L266.594,341.515L266.942,341.19L267.638,339.944L268.334,337.908L269.03,335.093L269.727,331.517L270.771,324.769L271.815,316.44L273.208,303.061L274.6,287.366L276.341,265.04L278.777,230.172L285.391,132.767L287.132,110.992L288.524,95.844L289.917,83.094L290.961,75.281L292.006,69.081L292.702,65.883L293.398,63.456L294.094,61.814L294.79,60.965L295.138,60.84L295.487,60.915L295.835,61.19L296.183,61.664L296.879,63.208L297.575,65.537L298.271,68.639L299.316,74.702L300.36,82.384L301.404,91.588L302.797,106.02L304.537,127.063L306.626,155.718L309.171,193.752" style="fill:none;fill-rule:nonzero;stroke:black;stroke-width:0.28px;"/>
            </g>
            <g transform="matrix(15.7503,0,0,0.759733,-4630.24,462.339)">
                <path d="M310.205,208.966L313.24,254.204L315.329,282.042L317.069,302.144L318.462,315.678L319.506,324.134L320.55,331.017L321.595,336.239L322.291,338.763L322.987,340.504L323.683,341.453L324.031,341.628L324.38,341.603L324.728,341.378L325.076,340.953L325.772,339.509L326.468,337.277L327.164,334.27L328.209,328.347L329.253,320.796L330.297,311.715L331.69,297.429L333.43,276.538L335.519,248.013L338.652,201.24L342.481,144.618L344.57,117.221L346.31,97.613L347.703,84.546L348.747,76.474L349.791,69.998L350.836,65.203L351.532,62.971L352.228,61.527L352.576,61.102L352.924,60.877L353.273,60.852L353.621,61.027L353.969,61.402L354.665,62.748L355.361,64.882L356.057,67.792L357.102,73.576L358.146,80.995L359.19,89.953L360.583,104.091L361.975,120.438L363.716,143.408L366.153,178.819L371.722,261.475L373.463,284.194" style="fill:none;fill-rule:nonzero;stroke:black;stroke-width:0.28px;"/>
            </g>
            <g transform="matrix(15.7503,0,0,0.759733,-4173.72,462.339)">
                <path d="M218.752,260.663L222.732,201.24L226.561,144.618L228.65,117.221L230.39,97.613L231.783,84.546L232.827,76.474L233.871,69.998L234.916,65.203L235.612,62.971L236.308,61.527L236.656,61.102L237.004,60.877L237.353,60.852L237.701,61.027L238.049,61.402L238.745,62.748L239.441,64.882L240.137,67.792L241.182,73.576L242.226,80.995L243.27,89.953L244.663,104.091L246.055,120.438L247.796,143.408L250.233,178.819L255.802,261.475L257.543,284.194L259.283,303.968L260.676,317.192L261.72,325.393L262.764,332.005L263.809,336.943L264.505,339.272L265.201,340.816L265.549,341.29L265.897,341.565L266.246,341.64L266.594,341.515L266.942,341.19L267.638,339.944L268.334,337.908L269.03,335.093L269.727,331.517L270.771,324.769L271.815,316.44L273.208,303.061L274.6,287.366L276.341,265.04L278.777,230.172L285.391,132.767L287.132,110.992L288.524,95.844L289.917,83.094L290.961,75.281L292.006,69.081L292.702,65.883L293.398,63.456L294.094,61.814L294.79,60.965L295.138,60.84L295.487,60.915L295.835,61.19L296.183,61.664L296.879,63.208L297.575,65.537L298.271,68.639L299.316,74.702L300.36,82.384L301.404,91.588L302.797,106.02L304.537,127.063L306.626,155.718L309.208,194.473" style="fill:none;fill-rule:nonzero;stroke:black;stroke-width:0.28px;"/>
            </g>
            <g transform="matrix(15.7503,0,0,0.759733,-4173.72,462.339)">
                <path d="M310.125,208.021L313.24,254.204L315.329,282.042L317.069,302.144L318.462,315.678L319.506,324.134L320.55,331.017L321.595,336.239L322.291,338.763L322.987,340.504L323.683,341.453L324.031,341.628L324.38,341.603L324.728,341.378L325.076,340.953L325.772,339.509L326.468,337.277L327.164,334.27L328.209,328.347L329.253,320.796L330.297,311.715L331.69,297.429L333.43,276.538L335.519,248.013L338.652,201.24L342.481,144.618L344.57,117.221" style="fill:none;fill-rule:nonzero;stroke:black;stroke-width:0.28px;"/>
            </g>
            <g transform="matrix(1.81769,0,0,1.85608,-1446.59,-657.927)">
                <path d="M968.405,673.013L968.405,695.596" style="fill:none;stroke:black;stroke-width:1.12px;stroke-linecap:round;stroke-miterlimit:1.5;"/>
            </g>
            <g transform="matrix(1.81769,0,0,1.85608,-988.932,-657.927)">
                <path d="M968.405,673.013L968.405,695.596" style="fill:none;stroke:black;stroke-width:1.12px;stroke-linecap:round;stroke-miterlimit:1.5;"/>
            </g>
            <g transform="matrix(1.81769,0,0,1.85608,-1119.73,-657.927)">
                <path d="M968.405,673.013L968.405,695.596" style="fill:none;stroke:black;stroke-width:1.12px;stroke-linecap:round;stroke-miterlimit:1.5;"/>
            </g>
            <g transform="matrix(1.81769,0,0,1.85608,-1575.4,-657.927)">
                <path d="M968.405,673.013L968.405,695.596" style="fill:none;stroke:black;stroke-width:1.12px;stroke-linecap:round;stroke-miterlimit:1.5;"/>
            </g>
            <g transform="matrix(4.99259,0,0,5.09805,-4259.69,-2873.97)">
                <path d="M968.405,673.013L968.405,695.596" style="fill:none;stroke:black;stroke-width:0.41px;stroke-linecap:round;stroke-miterlimit:1.5;"/>
            </g>
            <g transform="matrix(4.99259,0,0,5.09805,-4715.36,-2873.97)">
                <path d="M968.405,673.013L968.405,695.596" style="fill:none;stroke:black;stroke-width:0.41px;stroke-linecap:round;stroke-miterlimit:1.5;"/>
            </g>
            <g transform="matrix(4.99259,0,0,5.09805,-3802.03,-2873.97)">
                <path d="M968.405,673.013L968.405,695.596" style="fill:none;stroke:black;stroke-width:0.41px;stroke-linecap:round;stroke-miterlimit:1.5;"/>
            </g>
            <g transform="matrix(4.99259,0,0,5.09805,-4455.81,-2873.97)">
                <path d="M968.405,673.013L968.405,695.596" style="fill:none;stroke:black;stroke-width:0.41px;stroke-linecap:round;stroke-miterlimit:1.5;"/>
            </g>
            <g transform="matrix(4.99259,0,0,5.09805,-4911.48,-2873.97)">
                <path d="M968.405,673.013L968.405,695.596" style="fill:none;stroke:black;stroke-width:0.41px;stroke-linecap:round;stroke-miterlimit:1.5;"/>
            </g>
            <g transform="matrix(4.99259,0,0,5.09805,-3998.15,-2873.97)">
                <path d="M968.405,673.013L968.405,695.596" style="fill:none;stroke:black;stroke-width:0.41px;stroke-linecap:round;stroke-miterlimit:1.5;"/>
            </g>
            <g transform="matrix(7.21366,0,0,7.36604,-6475.96,-4425.63)">
                <path d="M968.405,673.013L968.405,695.596" style="fill:none;stroke:black;stroke-width:0.28px;stroke-linecap:round;stroke-miterlimit:1.5;"/>
            </g>
            <g transform="matrix(7.21366,0,0,7.36604,-6931.63,-4425.63)">
                <path d="M968.405,673.013L968.405,695.596" style="fill:none;stroke:black;stroke-width:0.28px;stroke-linecap:round;stroke-miterlimit:1.5;"/>
            </g>
            <g transform="matrix(7.21366,0,0,7.36604,-6018.3,-4425.63)">
                <path d="M968.405,673.013L968.405,695.596" style="fill:none;stroke:black;stroke-width:0.28px;stroke-linecap:round;stroke-miterlimit:1.5;"/>
            </g>
            <g transform="matrix(7.21366,0,0,7.36604,-6541.33,-4425.63)">
                <path d="M968.405,673.013L968.405,695.596" style="fill:none;stroke:black;stroke-width:0.28px;stroke-linecap:round;stroke-miterlimit:1.5;"/>
            </g>
            <g transform="matrix(7.21366,0,0,7.36604,-6997,-4425.63)">
                <path d="M968.405,673.013L968.405,695.596" style="fill:none;stroke:black;stroke-width:0.28px;stroke-linecap:round;stroke-miterlimit:1.5;"/>
            </g>
            <g transform="matrix(7.21366,0,0,7.36604,-6083.68,-4425.63)">
                <path d="M968.405,673.013L968.405,695.596" style="fill:none;stroke:black;stroke-width:0.28px;stroke-linecap:round;stroke-miterlimit:1.5;"/>
            </g>
        </g>
    </g>
</svg>
